<?xml version="1.0" encoding="UTF-8"?>
<svg xmlns="http://www.w3.org/2000/svg" xmlns:xlink="http://www.w3.org/1999/xlink" width="369.699pt" height="369.699pt" viewBox="0 0 369.699 369.699" version="1.1">
<defs>
<clipPath id="clip1">
  <path d="M 128 199 L 242 199 L 242 369.699219 L 128 369.699219 Z M 128 199 "/>
</clipPath>
<clipPath id="clip2">
  <path d="M 111 182 L 259 182 L 259 369.699219 L 111 369.699219 Z M 111 182 "/>
</clipPath>
<clipPath id="clip3">
  <path d="M 199 128 L 369.699219 128 L 369.699219 242 L 199 242 Z M 199 128 "/>
</clipPath>
<clipPath id="clip4">
  <path d="M 182 111 L 369.699219 111 L 369.699219 259 L 182 259 Z M 182 111 "/>
</clipPath>
</defs>
<g id="surface1">
<path style="fill-rule:nonzero;fill:rgb(11.764526%,56.469727%,100%);fill-opacity:1;stroke-width:1.19553;stroke-linecap:butt;stroke-linejoin:miter;stroke:rgb(0%,0%,0%);stroke-opacity:1;stroke-miterlimit:10;" d="M 0.0015625 184.25525 C 39.825781 184.25525 56.692969 139.040406 56.692969 99.212281 C 56.692969 59.388062 10.30625 52.641969 0.0015625 14.173219 C -10.307031 52.641969 -56.69375 59.388062 -56.69375 99.212281 C -56.69375 139.040406 -39.826563 184.25525 0.0015625 184.25525 Z M 0.0015625 184.25525 " transform="matrix(1,0,0,-1,184.85,184.849)"/>
<g clip-path="url(#clip1)" clip-rule="nonzero">
<path style=" stroke:none;fill-rule:nonzero;fill:rgb(98.039246%,98.039246%,0%);fill-opacity:1;" d="M 184.851562 369.101562 C 224.675781 369.101562 241.542969 323.890625 241.542969 284.0625 C 241.542969 244.234375 195.15625 237.492188 184.851562 199.023438 C 174.542969 237.492188 128.15625 244.234375 128.15625 284.0625 C 128.15625 323.890625 145.023438 369.101562 184.851562 369.101562 Z M 184.851562 369.101562 "/>
</g>
<g clip-path="url(#clip2)" clip-rule="nonzero">
<path style="fill:none;stroke-width:1.19553;stroke-linecap:butt;stroke-linejoin:miter;stroke:rgb(0%,0%,0%);stroke-opacity:1;stroke-miterlimit:10;" d="M 0.0015625 -184.252563 C 39.825781 -184.252563 56.692969 -139.041625 56.692969 -99.2135 C 56.692969 -59.385375 10.30625 -52.643188 0.0015625 -14.174438 C -10.307031 -52.643188 -56.69375 -59.385375 -56.69375 -99.2135 C -56.69375 -139.041625 -39.826563 -184.252563 0.0015625 -184.252563 Z M 0.0015625 -184.252563 " transform="matrix(1,0,0,-1,184.85,184.849)"/>
</g>
<g clip-path="url(#clip3)" clip-rule="nonzero">
<path style=" stroke:none;fill-rule:nonzero;fill:rgb(100%,27.059937%,0%);fill-opacity:1;" d="M 369.105469 184.847656 C 369.105469 145.023438 323.890625 128.15625 284.0625 128.15625 C 244.238281 128.15625 237.492188 174.542969 199.023438 184.847656 C 237.492188 195.15625 244.238281 241.542969 284.0625 241.542969 C 323.890625 241.542969 369.105469 224.675781 369.105469 184.847656 Z M 369.105469 184.847656 "/>
</g>
<g clip-path="url(#clip4)" clip-rule="nonzero">
<path style="fill:none;stroke-width:1.19553;stroke-linecap:butt;stroke-linejoin:miter;stroke:rgb(0%,0%,0%);stroke-opacity:1;stroke-miterlimit:10;" d="M 184.255469 0.00134375 C 184.255469 39.825562 139.040625 56.69275 99.2125 56.69275 C 59.388281 56.69275 52.642187 10.306031 14.173437 0.00134375 C 52.642187 -10.30725 59.388281 -56.693969 99.2125 -56.693969 C 139.040625 -56.693969 184.255469 -39.826781 184.255469 0.00134375 Z M 184.255469 0.00134375 " transform="matrix(1,0,0,-1,184.85,184.849)"/>
</g>
<path style="fill-rule:nonzero;fill:rgb(19.607544%,80.39093%,19.607544%);fill-opacity:1;stroke-width:1.19553;stroke-linecap:butt;stroke-linejoin:miter;stroke:rgb(0%,0%,0%);stroke-opacity:1;stroke-miterlimit:10;" d="M -184.252344 0.00134375 C -184.252344 39.825562 -139.041406 56.69275 -99.213281 56.69275 C -59.385156 56.69275 -52.642969 10.306031 -14.174219 0.00134375 C -52.642969 -10.30725 -59.385156 -56.693969 -99.213281 -56.693969 C -139.041406 -56.693969 -184.252344 -39.826781 -184.252344 0.00134375 Z M -184.252344 0.00134375 " transform="matrix(1,0,0,-1,184.85,184.849)"/>
<path style="fill-rule:nonzero;fill:rgb(100%,100%,100%);fill-opacity:1;stroke-width:1.19553;stroke-linecap:butt;stroke-linejoin:miter;stroke:rgb(0%,0%,0%);stroke-opacity:1;stroke-miterlimit:10;" d="M 14.173437 0.00134375 C 14.173437 7.829469 7.829687 14.173219 0.0015625 14.173219 C -7.826563 14.173219 -14.174219 7.829469 -14.174219 0.00134375 C -14.174219 -7.826781 -7.826563 -14.174438 0.0015625 -14.174438 C 7.829687 -14.174438 14.173437 -7.826781 14.173437 0.00134375 Z M 14.173437 0.00134375 " transform="matrix(1,0,0,-1,184.85,184.849)"/>
</g>
</svg>
